# xmcd
#
# Track frame offsets:
#	150
#	15682
#	40167
#	58397
#	79200
#	102070
#	130065
#	169793
#	210773
#	237010
#	270995
#
# Disc length: 3992 seconds
#
# Revision: 1
# Processed by: cddbd v1.5PL3 Copyright (c) Steve Scherf et al.
# Submitted via: audiograbber 1.82.01
#
DISCID=840f960b
DTITLE=Eric Clapton - 2001-06-09 - Air Canada Centre,Toronto - Disc 1
DYEAR=1900
DGENRE=
TTITLE0=Eric Clapton - Key to the Highway
TTITLE1=Eric Clapton - Reptile
TTITLE2=Eric Clapton - Got you on my Mind
TTITLE3=Eric Clapton - Tears in Heaven
TTITLE4=Eric Clapton - Bell Bottom Blues
TTITLE5=Eric Clapton - Change the World
TTITLE6=Eric Clapton - My Father's Eyes
TTITLE7=Eric Clapton - River of Tears
TTITLE8=Eric Clapton - Goin' Down Slow
TTITLE9=Eric Clapton - She's Gone
TTITLE10=Eric Clapton - Don't Let Me Be Lonely Tonight
EXTD=
EXTT0=
EXTT1=
EXTT2=
EXTT3=
EXTT4=
EXTT5=
EXTT6=
EXTT7=
EXTT8=
EXTT9=
EXTT10=
PLAYORDER=
